<svg width="21" height="21" viewBox="0 0 21 21" fill="none" xmlns="http://www.w3.org/2000/svg">
<circle cx="10.5" cy="10.5" r="10" stroke="#EF2121"/>
<path d="M11.0234 13.2109H10.1562L10.1094 5H11.0781L11.0234 13.2109ZM10 15.8281C10 15.651 10.0573 15.5026 10.1719 15.3828C10.2865 15.2578 10.4427 15.1953 10.6406 15.1953C10.8385 15.1953 10.9948 15.2578 11.1094 15.3828C11.2292 15.5026 11.2891 15.651 11.2891 15.8281C11.2891 16 11.2292 16.1458 11.1094 16.2656C10.9948 16.3802 10.8385 16.4375 10.6406 16.4375C10.4427 16.4375 10.2865 16.3802 10.1719 16.2656C10.0573 16.1458 10 16 10 15.8281Z" fill="#EF2121"/>
</svg>
