<svg width="17" height="16" viewBox="0 0 17 16" fill="none" xmlns="http://www.w3.org/2000/svg">
<path d="M15.0234 2.25015H11.6874C11.6622 1.91161 11.5062 1.59477 11.2507 1.36299C10.9951 1.1312 10.6588 1.00156 10.309 1H6.8231C6.47362 0.999423 6.13715 1.12861 5.8827 1.36107C5.62826 1.59353 5.47513 1.91164 5.45473 2.25015H2.10869C1.81465 2.25015 1.53264 2.36349 1.32472 2.56522C1.1168 2.76696 1 3.04057 1 3.32587V13.5984C1 13.8837 1.1168 14.1573 1.32472 14.3591C1.53264 14.5608 1.81465 14.6741 2.10869 14.6741H15.0234C15.3175 14.6741 15.5995 14.5608 15.8074 14.3591C16.0153 14.1573 16.1321 13.8837 16.1321 13.5984V3.32587C16.1321 3.1846 16.1034 3.04472 16.0477 2.91421C15.992 2.7837 15.9103 2.66511 15.8074 2.56522C15.7044 2.46533 15.5822 2.3861 15.4477 2.33204C15.3132 2.27798 15.169 2.25015 15.0234 2.25015ZM8.57104 11.6505C7.9784 11.6505 7.39907 11.48 6.9063 11.1605C6.41354 10.8411 6.02947 10.387 5.80267 9.85578C5.57588 9.32453 5.51654 8.73997 5.63216 8.176C5.74778 7.61203 6.03317 7.094 6.45224 6.6874C6.8713 6.2808 7.40521 6.00391 7.98646 5.89173C8.56772 5.77955 9.17021 5.83712 9.71774 6.05717C10.2653 6.27722 10.7333 6.64986 11.0625 7.12796C11.3918 7.60607 11.5675 8.16818 11.5675 8.74319C11.5675 9.51426 11.2518 10.2538 10.6899 10.799C10.1279 11.3442 9.36575 11.6505 8.57104 11.6505V11.6505Z" stroke="#FF6633" stroke-miterlimit="10"/>
</svg>
